<svg width="980" height="385" viewBox="0 0 980 385" fill="none" xmlns="http://www.w3.org/2000/svg">
<path d="M84.6045 114.696C86.4439 126.072 86.4439 126.376 86.4439 136.217H87.057C93.1707 127.287 104.829 111.32 132.02 111.32C172.408 111.32 192.588 145.441 192.588 184.17C192.588 219.889 174.549 265.021 128.351 265.021C103.878 265.021 93.7838 253.349 86.746 245.67V311.884C86.746 326.342 87.6346 326.654 98.68 326.654H106.677V340.79H45.1415V326.654H50.6509C62.887 326.654 62.887 325.422 62.887 310.965V146.986C62.887 134.065 62.576 132.216 50.6509 132.216H43V118.696L84.6045 114.696ZM127.133 245.67C159.86 245.67 166.596 210.299 166.596 188.519C166.596 161.729 157.71 131.368 126.209 131.368C101.124 131.368 84.6045 155.041 84.6045 188.251C84.6045 238.285 113.671 245.67 127.133 245.67Z" fill="white"/>
<path d="M232.051 185.412C232.362 219.533 245.824 244.125 277.947 244.125C296.91 244.125 314.042 234.303 328.722 221.069V243.527C310.95 259.512 293.24 265.048 273.362 265.048C226.266 265.048 206.352 228.436 206.352 190.037C206.352 143.004 232.664 110.41 273.362 110.41C284.372 110.41 307.92 113.491 321.347 135.012C331.752 151.603 332.055 173.41 332.055 185.43L232.051 185.412ZM307.005 168.517C305.476 145.46 295.382 127.02 271.825 127.02C267.231 127.02 239.702 127.02 233.615 168.517H307.005Z" fill="white"/>
<path d="M379.817 75.0391V114.696H418.356V132.556H379.817V220.792C379.817 227.552 379.817 244.768 395.101 244.768C402.752 244.768 406.733 242.92 417.441 237.696C418.601 237.158 419.724 236.541 420.799 235.847V253.707C411.913 258.618 400.61 264.164 387.459 264.164C355.034 264.164 355.034 238.035 355.034 226.346V132.583H336.684V119.929C361.147 111.321 363.6 89.4875 365.439 75.0391H379.817Z" fill="white"/>
<path d="M426.789 114.697H489.507V128.851C477.573 128.851 473.289 128.851 473.289 134.066C473.289 136.531 474.178 138.683 475.129 141.451L508.478 227.526L540.592 142.362C541.537 140.018 542.054 137.523 542.121 134.995C542.121 129.146 538.451 129.146 526.517 128.851V114.697H580.971V128.851C568.424 128.851 566.895 129.146 560.471 146.371C559.94 147.231 559.527 148.16 559.244 149.131L513.979 263.174H496.535L449.439 145.737C443.015 129.762 439.345 129.762 426.798 128.842L426.789 114.697Z" fill="#79BDE8"/>
<path d="M589.261 126.377C604.318 116.024 622.122 110.456 640.365 110.393C651.028 110.393 673.714 112.241 685.026 130.038C689.31 137.102 690.545 149.398 690.545 165.391V225.668C690.545 241.652 692.988 245.313 698.178 245.313C702.772 245.313 707.668 243.161 711.347 241.009V256.065C710.797 256.484 710.168 256.788 709.499 256.958C703.385 260.03 695.121 264.03 685.648 264.03C669.129 264.03 667.592 247.43 666.677 240.974C659.337 249.903 648.016 264.03 622.318 264.03C607.327 264.03 577.354 258.19 577.354 222.524C577.354 184.403 609.468 176.723 666.677 162.891C666.677 147.826 666.375 125.993 637.921 125.993C617.119 125.993 608.553 134.923 608.553 150.586V157.042H589.261V126.377ZM666.659 178.947L664.206 179.572C621.998 191.243 601.8 196.476 601.8 219.846C601.8 237.053 614.96 245.046 627.507 245.046C638.538 244.9 649.118 240.624 657.178 233.053C661.763 228.445 666.659 220.453 666.659 200.477V178.947Z" fill="#79BDE8"/>
<path d="M707.65 48.9114L753.538 44V231.83C753.538 244.43 753.538 246.591 765.774 246.591H770.67V260.414H710.707V246.591H715.292C727.235 246.591 729.057 245.966 729.057 231.83V76.585C729.057 62.4401 729.057 61.824 707.65 62.4401V48.9114Z" fill="#79BDE8"/>
<path d="M815.029 112.857V205.728C815.029 220.176 815.029 242.608 842.247 242.608C867.945 242.608 881.719 225.4 881.719 196.503V142.067C881.719 129.145 879.568 129.458 860.605 129.771V115.929L905.578 112.857V228.445C905.578 237.982 905.578 242.581 913.575 242.581H925.802V255.815L884.5 260.414C882.604 253.091 881.68 245.549 881.754 237.982H881.132C870.469 258.271 853.301 264.111 836.169 264.111C789.961 264.111 789.961 223.525 789.961 211.228V142.067C789.961 129.145 788.122 129.458 769.461 129.771V115.929L815.029 112.857Z" fill="#79BDE8"/>
<path d="M930.05 111.883C932.133 111.883 934.131 112.714 935.604 114.195C937.078 115.675 937.905 117.683 937.905 119.777C937.905 121.87 937.078 123.878 935.604 125.359C934.131 126.839 932.133 127.671 930.05 127.671C927.967 127.671 925.969 126.839 924.495 125.359C923.022 123.878 922.195 121.87 922.195 119.777C922.195 117.683 923.022 115.675 924.495 114.195C925.969 112.714 927.967 111.883 930.05 111.883ZM929.952 113.267C928.241 113.28 926.605 113.975 925.405 115.201C924.204 116.426 923.537 118.08 923.55 119.799C923.563 121.519 924.255 123.162 925.474 124.369C926.693 125.576 928.339 126.246 930.05 126.233C930.881 126.234 931.703 126.065 932.467 125.738C933.231 125.41 933.921 124.93 934.495 124.326C935.069 123.722 935.516 123.008 935.807 122.226C936.098 121.444 936.229 120.611 936.19 119.777C936.225 118.934 936.09 118.094 935.793 117.305C935.496 116.517 935.043 115.797 934.462 115.188C933.881 114.58 933.183 114.096 932.411 113.766C931.639 113.436 930.809 113.266 929.97 113.267H929.952ZM928.575 124.072H927.055V115.83C927.993 115.658 928.945 115.574 929.899 115.58C930.814 115.494 931.731 115.72 932.502 116.223C932.768 116.425 932.981 116.687 933.126 116.988C933.272 117.289 933.344 117.621 933.338 117.955C933.32 118.416 933.152 118.857 932.86 119.212C932.568 119.568 932.167 119.816 931.72 119.92V120.027C932.098 120.207 932.423 120.483 932.663 120.828C932.903 121.172 933.05 121.573 933.089 121.991C933.168 122.714 933.369 123.418 933.684 124.072H932.111C931.759 123.398 931.545 122.66 931.481 121.902C931.276 121.009 930.743 120.616 929.561 120.616H928.575V124.072ZM928.575 119.429H929.606C930.743 119.429 931.72 119.089 931.72 118.098C931.72 117.312 931.232 116.767 929.757 116.767C929.36 116.757 928.964 116.79 928.575 116.866V119.429Z" fill="white"/>
</svg>
